<?xml version="1.0" encoding="UTF-8" standalone="no"?>
<!DOCTYPE svg PUBLIC "-//W3C//DTD SVG 20010904//EN"
              "http://www.w3.org/TR/2001/REC-SVG-20010904/DTD/svg10.dtd">

<svg xmlns="http://www.w3.org/2000/svg"
     width="5.05556in" height="5.68889in"
     viewBox="0 0 455 512">
  <path id="Imported Path"
        fill="currentColor" stroke="currentColor" stroke-width="1"
        d="M 228.31,86.45
           C 290.77,86.45 345.31,120.38 374.52,170.81
             374.52,170.81 374.23,170.33 374.23,170.33
             374.23,170.33 300.74,212.65 300.74,212.65
             286.26,188.13 259.72,171.58 229.27,171.24
             229.27,171.24 228.31,171.24 228.31,171.24
             181.88,171.24 144.23,208.89 144.23,255.33
             144.23,270.52 148.28,284.76 155.32,297.06
             169.81,322.36 197.06,339.43 228.31,339.43
             259.76,339.43 287.16,322.15 301.58,296.57
             301.58,296.57 301.23,297.18 301.23,297.18
             301.23,297.18 374.61,339.70 374.61,339.70
             345.72,389.71 291.93,423.54 230.19,424.21
             230.19,424.21 228.31,424.22 228.31,424.22
             165.65,424.22 110.96,390.08 81.83,339.38
             67.60,314.63 59.46,285.93 59.46,255.33
             59.46,162.06 135.06,86.45 228.31,86.45 Z
           M 358.83,206.74
           C 358.83,206.74 358.83,230.70 358.83,230.70
             358.83,230.70 382.78,230.70 382.78,230.70
             382.78,230.70 382.78,206.74 382.78,206.74
             382.78,206.74 394.75,206.74 394.75,206.74
             394.75,206.74 394.75,230.70 394.75,230.70
             394.75,230.70 418.70,230.70 418.70,230.70
             418.70,230.70 418.70,242.67 418.70,242.67
             418.70,242.67 394.75,242.67 394.75,242.67
             394.75,242.67 394.75,266.63 394.75,266.63
             394.75,266.63 418.70,266.63 418.70,266.63
             418.70,266.63 418.70,278.60 418.70,278.60
             418.70,278.60 394.75,278.60 394.75,278.60
             394.75,278.60 394.75,302.56 394.75,302.56
             394.75,302.56 382.78,302.56 382.78,302.56
             382.78,302.56 382.78,278.60 382.78,278.60
             382.78,278.60 358.83,278.60 358.83,278.60
             358.83,278.60 358.83,302.56 358.83,302.56
             358.83,302.56 346.86,302.56 346.86,302.56
             346.86,302.56 346.86,278.60 346.86,278.60
             346.86,278.60 322.91,278.60 322.91,278.60
             322.91,278.60 322.91,266.63 322.91,266.63
             322.91,266.63 346.86,266.63 346.86,266.63
             346.86,266.63 346.86,242.67 346.86,242.67
             346.86,242.67 322.91,242.67 322.91,242.67
             322.91,242.67 322.91,230.70 322.91,230.70
             322.91,230.70 346.86,230.70 346.86,230.70
             346.86,230.70 346.86,206.74 346.86,206.74
             346.86,206.74 358.83,206.74 358.83,206.74 Z
           M 382.78,242.67
           C 382.78,242.67 358.83,242.67 358.83,242.67
             358.83,242.67 358.83,266.63 358.83,266.63
             358.83,266.63 382.78,266.63 382.78,266.63
             382.78,266.63 382.78,242.67 382.78,242.67 Z
           M 454.23,150.14
           C 454.23,141.55 452.39,133.96 448.68,127.45
             448.68,127.45 227.82,254.65 227.82,254.65
             227.82,254.65 448.95,382.78 448.95,382.78
             452.49,376.37 454.25,368.93 454.26,360.53
             454.26,360.53 454.26,220.28 454.23,150.14M 227.82,254.65
           C 227.82,254.65 5.31,382.80 5.31,382.80
             8.96,389.40 14.50,394.91 21.99,399.25
             57.91,420.06 178.43,489.11 202.50,503.32
             218.68,512.87 234.49,513.21 250.79,503.79
             311.25,468.88 371.78,434.11 432.27,399.23
             439.76,394.89 445.30,389.37 448.95,382.78
             448.95,382.78 227.82,254.65 227.82,254.65M 454.23,150.14
           C 454.23,141.55 452.39,133.96 448.68,127.45
             445.03,121.05 439.57,115.68 432.25,111.44
             371.77,76.56 311.24,41.79 250.78,6.87
             234.49,-2.54 218.68,-2.19 202.51,7.35
             178.44,21.55 57.92,90.61 22.01,111.42
             7.22,119.98 0.03,133.09 0.02,150.12
             0.00,220.26 0.02,290.40 0.00,360.55
             0.00,368.95 1.76,376.39 5.31,382.80
             8.96,389.40 14.50,394.91 21.99,399.25
             57.91,420.06 178.43,489.11 202.50,503.32
             218.68,512.87 234.49,513.21 250.79,503.79
             311.25,468.88 371.78,434.11 432.27,399.23
             439.76,394.89 445.30,389.37 448.95,382.78
             452.49,376.37 454.26,368.93 454.26,360.53
             454.26,360.53 454.26,220.28 454.23,150.14" />
</svg>
