<?xml version="1.0" standalone="no"?>
<!DOCTYPE svg PUBLIC "-//W3C//DTD SVG 20010904//EN"
 "http://www.w3.org/TR/2001/REC-SVG-20010904/DTD/svg10.dtd">
<svg version="1.0" xmlns="http://www.w3.org/2000/svg"
 width="1600.000000pt" height="1600.000000pt" viewBox="0 0 1600.000000 1600.000000"
 preserveAspectRatio="xMidYMid meet">

<g transform="translate(0.000000,1600.000000) scale(0.100000,-0.100000)"
fill="#000000" stroke="none">
<path d="M7745 15331 c-148 -31 -271 -77 -420 -158 -428 -234 -4887 -2743 -5390 -3033 -121 -70 -175 -113 -287 -228 -103 -107 -190 -229 -242 -343 -49 -108 -93 -254 -106 -350 -15 -118 -15 -6320 0 -6438 31 -241 173 -525 354 -706 159 -158 42 -88 2061 -1222 2083 -1171 3621 -2031 3707 -2075 74 -37 205 -82 310 -105 64 -14 127 -18 273 -18 208 0 246 6 423 62 137 43 49 -6 3712 2053 1850 1040 1970 1108 2050 1167 267 199 471 536 510 848 14 113 14 6320 -1 6435 -20 165 -110 389 -216 539 -54 77 -216 245 -288 300 -59 45 -1074 620 -3585 2031 -2024 1137 -2048 1150 -2165 1189 -157 52 -226 63 -425 67 -153 3 -201 0 -275 -15z m472 -3501 c261 -11 419 -32 658 -90 845 -202 1564 -654 2111 -1328 64 -78 66 -83 48 -97 -29 -21 -422 -252 -922 -542 l-454 -262 -116 106 c-354 323 -712 502 -1182 590 -139 26 -583 25 -725 -1 -373 -68 -677 -199 -972 -416 -132 -98 -370 -338 -465 -470 -293 -408 -428 -826 -428 -1329 0 -519 169 -993 498 -1402 72 -89 273 -287 357 -351 314 -239 707 -403 1083 -453 151 -20 449 -20 594 1 312 43 656 172 918 344 111 73 248 181 305 240 22 23 61 59 87 81 l46 39 184 -106 c100 -59 311 -181 468 -272 415 -240 740 -434 740 -441 0 -4 -30 -45 -67 -91 -107 -134 -443 -465 -593 -584 -582 -461 -1238 -731 -1985 -818 -160 -19 -682 -15 -855 6 -770 94 -1492 415 -2070 921 -648 568 -1083 1319 -1251 2160 -50 249 -59 365 -59 735 0 439 21 617 116 978 240 919 833 1735 1639 2254 532 342 1092 532 1775 601 74 8 285 6 517 -3z m3623 -2550 l0 -320 320 0 320 0 0 320 0 320 320 0 320 0 0 -320 0 -320 320 0 320 0 0 -320 0 -320 -320 0 -320 0 0 -320 0 -320 320 0 320 0 0 -320 0 -320 -320 0 -320 0 0 -320 0 -320 -320 0 -320 0 0 320 0 320 -320 0 -320 0 0 -320 0 -320 -320 0 -320 0 0 320 0 320 -320 0 -320 0 0 320 0 320 320 0 320 0 0 320 0 320 -320 0 -320 0 0 320 0 320 320 0 320 0 0 320 0 320 320 0 320 0 0 -320z M11840 8000 l0 -320 320 0 320 0 0 320 0 320 -320 0 -320 0 0 -320z"/>
</g>
</svg>
