<?xml version="1.0" encoding="UTF-8" standalone="no"?>
<!DOCTYPE svg PUBLIC "-//W3C//DTD SVG 20010904//EN"
              "http://www.w3.org/TR/2001/REC-SVG-20010904/DTD/svg10.dtd">

<svg xmlns="http://www.w3.org/2000/svg"
     width="5.68889in" height="5.68889in"
     viewBox="0 0 512 512">
  <path id="Imported Path"
        fill="currentColor" stroke="black" stroke-width="1"
        d="M 247.84,21.41 C 243.10,22.40 239.17,23.87 234.40,26.46 220.70,33.95 78.02,114.24 61.92,123.52 58.05,125.76 56.32,127.14 52.74,130.82 49.44,134.24 46.66,138.14 44.99,141.79 43.42,145.25 42.02,149.92 41.60,152.99 41.12,156.77 41.12,355.23 41.60,359.01 42.59,366.72 47.14,375.81 52.93,381.60 58.02,386.66 54.27,384.42 118.88,420.70 185.54,458.18 234.75,485.70 237.50,487.10 239.87,488.29 244.06,489.73 247.42,490.46 249.47,490.91 251.49,491.04 256.16,491.04 262.82,491.04 264.03,490.85 269.70,489.06 274.08,487.68 271.26,489.25 388.48,423.36 447.68,390.08 451.52,387.90 454.08,386.02 462.62,379.65 469.15,368.86 470.40,358.88 470.85,355.26 470.85,156.64 470.37,152.96 469.73,147.68 466.85,140.51 463.46,135.71 461.73,133.25 456.54,127.87 454.24,126.11 452.35,124.67 419.87,106.27 339.52,61.12 274.75,24.74 273.98,24.32 270.24,23.07 265.22,21.41 263.01,21.06 256.64,20.93 251.74,20.83 250.21,20.93 247.84,21.41 Z M 262.94,133.44 C 271.30,133.79 276.35,134.46 284.00,136.32 311.04,142.78 334.05,157.25 351.55,178.82 353.60,181.31 353.66,181.47 353.09,181.92 352.16,182.59 339.58,189.98 323.58,199.26 323.58,199.26 309.06,207.65 309.06,207.65 309.06,207.65 305.34,204.26 305.34,204.26 294.02,193.92 282.56,188.19 267.52,185.38 263.07,184.54 248.86,184.58 244.32,185.41 232.38,187.58 222.66,191.78 213.22,198.72 208.99,201.86 201.38,209.54 198.34,213.76 188.96,226.82 184.64,240.19 184.64,256.29 184.64,272.90 190.05,288.06 200.58,301.15 202.88,304.00 209.31,310.34 212.00,312.38 222.05,320.03 234.62,325.28 246.66,326.88 251.49,327.52 261.02,327.52 265.66,326.85 275.65,325.47 286.66,321.34 295.04,315.84 298.59,313.50 302.98,310.05 304.80,308.16 305.50,307.42 306.75,306.27 307.58,305.57 307.58,305.57 309.06,304.32 309.06,304.32 309.06,304.32 314.94,307.71 314.94,307.71 318.14,309.60 324.90,313.50 329.92,316.42 343.20,324.10 353.60,330.30 353.60,330.53 353.60,330.66 352.64,331.97 351.46,333.44 348.03,337.73 337.28,348.32 332.48,352.13 313.86,366.88 292.86,375.52 268.96,378.30 263.84,378.91 247.14,378.78 241.60,378.11 216.96,375.10 193.86,364.83 175.36,348.64 154.62,330.46 140.70,306.43 135.33,279.52 133.73,271.55 133.44,267.84 133.44,256.00 133.44,241.95 134.11,236.26 137.15,224.70 144.83,195.30 163.81,169.18 189.60,152.58 206.62,141.63 224.54,135.55 246.40,133.34 248.77,133.09 255.52,133.15 262.94,133.44 Z M 378.88,215.04 C 378.88,215.04 378.88,225.28 378.88,225.28 378.88,225.28 389.12,225.28 389.12,225.28 389.12,225.28 399.36,225.28 399.36,225.28 399.36,225.28 399.36,215.04 399.36,215.04 399.36,215.04 399.36,204.80 399.36,204.80 399.36,204.80 409.60,204.80 409.60,204.80 409.60,204.80 419.84,204.80 419.84,204.80 419.84,204.80 419.84,215.04 419.84,215.04 419.84,215.04 419.84,225.28 419.84,225.28 419.84,225.28 430.08,225.28 430.08,225.28 430.08,225.28 440.32,225.28 440.32,225.28 440.32,225.28 440.32,235.52 440.32,235.52 440.32,235.52 440.32,245.76 440.32,245.76 440.32,245.76 430.08,245.76 430.08,245.76 430.08,245.76 419.84,245.76 419.84,245.76 419.84,245.76 419.84,256.00 419.84,256.00 419.84,256.00 419.84,266.24 419.84,266.24 419.84,266.24 430.08,266.24 430.08,266.24 430.08,266.24 440.32,266.24 440.32,266.24 440.32,266.24 440.32,276.48 440.32,276.48 440.32,276.48 440.32,286.72 440.32,286.72 440.32,286.72 430.08,286.72 430.08,286.72 430.08,286.72 419.84,286.72 419.84,286.72 419.84,286.72 419.84,296.96 419.84,296.96 419.84,296.96 419.84,307.20 419.84,307.20 419.84,307.20 409.60,307.20 409.60,307.20 409.60,307.20 399.36,307.20 399.36,307.20 399.36,307.20 399.36,296.96 399.36,296.96 399.36,296.96 399.36,286.72 399.36,286.72 399.36,286.72 389.12,286.72 389.12,286.72 389.12,286.72 378.88,286.72 378.88,286.72 378.88,286.72 378.88,296.96 378.88,296.96 378.88,296.96 378.88,307.20 378.88,307.20 378.88,307.20 368.64,307.20 368.64,307.20 368.64,307.20 358.40,307.20 358.40,307.20 358.40,307.20 358.40,296.96 358.40,296.96 358.40,296.96 358.40,286.72 358.40,286.72 358.40,286.72 348.16,286.72 348.16,286.72 348.16,286.72 337.92,286.72 337.92,286.72 337.92,286.72 337.92,276.48 337.92,276.48 337.92,276.48 337.92,266.24 337.92,266.24 337.92,266.24 348.16,266.24 348.16,266.24 348.16,266.24 358.40,266.24 358.40,266.24 358.40,266.24 358.40,256.00 358.40,256.00 358.40,256.00 358.40,245.76 358.40,245.76 358.40,245.76 348.16,245.76 348.16,245.76 348.16,245.76 337.92,245.76 337.92,245.76 337.92,245.76 337.92,235.52 337.92,235.52 337.92,235.52 337.92,225.28 337.92,225.28 337.92,225.28 348.16,225.28 348.16,225.28 348.16,225.28 358.40,225.28 358.40,225.28 358.40,225.28 358.40,215.04 358.40,215.04 358.40,215.04 358.40,204.80 358.40,204.80 358.40,204.80 368.64,204.80 368.64,204.80 368.64,204.80 378.88,204.80 378.88,204.80 378.88,204.80 378.88,215.04 378.88,215.04 Z M 378.88,256.00 C 378.88,256.00 378.88,266.24 378.88,266.24 378.88,266.24 389.12,266.24 389.12,266.24 389.12,266.24 399.36,266.24 399.36,266.24 399.36,266.24 399.36,256.00 399.36,256.00 399.36,256.00 399.36,245.76 399.36,245.76 399.36,245.76 389.12,245.76 389.12,245.76 389.12,245.76 378.88,245.76 378.88,245.76 378.88,245.76 378.88,256.00 378.88,256.00 Z" />
</svg>
