<svg xmlns="http://www.w3.org/2000/svg" viewBox="0 0 131 144" fill="#2c333a"><path fill-rule="evenodd" clip-rule="evenodd" d="M65.5 6.468l37.7 21.766v43.532L65.5 93.532 27.8 71.766V28.234L65.5 6.468zM32.03 30.676v31.976l27.692-47.964L32.03 30.676zM65.5 13.14L33.578 68.43h63.844L65.5 13.14zm27.692 59.52H37.808L65.5 88.648 93.192 72.66zm5.778-10.008L71.278 14.688 98.97 30.676v31.976z"/><circle cx="29.91" cy="29.45" r="8.91"/><circle cx="29.91" cy="70.545" r="8.91"/><circle cx="65.5" cy="91.09" r="8.91"/><circle cx="101.085" cy="70.545" r="8.91"/><circle cx="101.085" cy="29.455" r="8.91"/><circle cx="65.5" cy="8.91" r="8.91"/><path d="M9.612 137.84c-2.833 0-5.032-.816-6.596-2.448-1.564-1.632-2.391-3.819-2.482-6.562-.023-.68-.034-1.757-.034-3.23s.011-2.55.034-3.23c.09-2.743.918-4.93 2.482-6.562 1.564-1.632 3.763-2.448 6.596-2.448 1.927 0 3.547.363 4.862 1.088 1.315.725 2.29 1.587 2.924 2.584.657.975 1.009 1.847 1.054 2.618v.068a.548.548 0 01-.204.442.771.771 0 01-.51.17h-.748c-.204 0-.351-.045-.442-.136-.09-.091-.181-.272-.272-.544-.385-1.201-1.133-2.21-2.244-3.026-1.088-.816-2.561-1.224-4.42-1.224-2.108 0-3.774.578-4.998 1.734-1.201 1.156-1.847 2.958-1.938 5.406-.023.68-.034 1.7-.034 3.06s.011 2.38.034 3.06c.09 2.448.737 4.25 1.938 5.406 1.224 1.156 2.89 1.734 4.998 1.734s3.808-.601 5.1-1.802c1.292-1.201 1.938-2.981 1.938-5.338v-1.734h-5.916c-.227 0-.408-.068-.544-.204a.858.858 0 01-.204-.578v-.476c0-.227.068-.408.204-.544a.68.68 0 01.544-.238h7.276c.25 0 .442.068.578.204.136.136.204.329.204.578v2.992c0 1.813-.363 3.411-1.088 4.794a7.753 7.753 0 01-3.162 3.23c-1.383.771-3.026 1.156-4.93 1.156zm14.724-.34c-.226 0-.408-.068-.544-.204-.136-.136-.204-.317-.204-.544v-16.15c0-.227.068-.408.204-.544a.68.68 0 01.544-.238h.544a.68.68 0 01.544.238.68.68 0 01.238.544v1.564c.816-1.564 2.358-2.346 4.624-2.346h1.258c.227 0 .408.068.544.204.136.136.204.317.204.544v.476c0 .227-.068.408-.204.544-.136.136-.317.204-.544.204h-1.462c-1.36 0-2.437.397-3.23 1.19-.793.793-1.19 1.87-1.19 3.23v10.54a.68.68 0 01-.238.544c-.136.136-.317.204-.544.204h-.544zm15.567.34a6.813 6.813 0 01-3.026-.68c-.93-.453-1.678-1.065-2.244-1.836a4.326 4.326 0 01-.816-2.55c0-1.496.6-2.72 1.802-3.672 1.224-.952 2.867-1.564 4.93-1.836l5.372-.748v-1.19c0-1.247-.386-2.199-1.156-2.856-.748-.68-1.904-1.02-3.468-1.02-1.156 0-2.108.227-2.856.68-.726.453-1.19.997-1.394 1.632-.09.272-.204.465-.34.578-.114.091-.272.136-.476.136h-.476a.812.812 0 01-.544-.204.813.813 0 01-.204-.544c0-.499.227-1.077.68-1.734.453-.68 1.156-1.269 2.108-1.768.952-.499 2.12-.748 3.502-.748 2.425 0 4.148.578 5.168 1.734 1.02 1.156 1.53 2.561 1.53 4.216v11.322c0 .227-.068.408-.204.544-.136.136-.317.204-.544.204h-.578c-.227 0-.408-.068-.544-.204-.136-.136-.204-.317-.204-.544v-1.598c-.499.748-1.236 1.383-2.21 1.904-.952.521-2.221.782-3.808.782zm.34-1.972c1.654 0 3.014-.544 4.08-1.632 1.065-1.088 1.598-2.652 1.598-4.692v-1.156l-4.386.612c-1.859.249-3.264.68-4.216 1.292-.952.612-1.428 1.383-1.428 2.312 0 1.043.43 1.847 1.292 2.414.884.567 1.904.85 3.06.85zm13.91 8.092c-.226 0-.408-.068-.544-.204-.136-.136-.204-.317-.204-.544v-22.644c0-.227.068-.408.204-.544.136-.136.318-.204.544-.204h.578c.227 0 .408.068.544.204.136.136.204.317.204.544v1.598c1.315-1.791 3.219-2.686 5.712-2.686 2.448 0 4.25.782 5.406 2.346 1.179 1.541 1.802 3.445 1.87 5.712.023.227.034.601.034 1.122 0 .521-.011.895-.034 1.122-.068 2.267-.691 4.182-1.87 5.746-1.156 1.541-2.958 2.312-5.406 2.312-2.47 0-4.374-.895-5.712-2.686v8.058c0 .227-.068.408-.204.544-.136.136-.317.204-.544.204h-.578zm6.834-8.092c1.836 0 3.174-.578 4.012-1.734.862-1.179 1.326-2.686 1.394-4.522.023-.227.034-.544.034-.952 0-2.108-.408-3.831-1.224-5.168-.816-1.36-2.221-2.04-4.216-2.04-1.79 0-3.139.601-4.046 1.802-.906 1.179-1.394 2.573-1.462 4.182l-.034 1.326.034 1.326a6.97 6.97 0 00.646 2.788 5.388 5.388 0 001.836 2.142c.816.567 1.825.85 3.026.85zM73.91 137.5c-.227 0-.409-.068-.545-.204-.136-.136-.204-.317-.204-.544v-22.644c0-.227.068-.408.204-.544.136-.136.318-.204.544-.204h.578c.227 0 .408.068.544.204.136.136.204.317.204.544v8.058c.68-.884 1.45-1.553 2.312-2.006.884-.453 2.017-.68 3.4-.68 2.221 0 3.933.714 5.134 2.142 1.201 1.405 1.802 3.23 1.802 5.474v9.656c0 .227-.068.408-.204.544-.136.136-.317.204-.544.204h-.578c-.227 0-.408-.068-.544-.204-.136-.136-.204-.317-.204-.544v-9.486c0-1.836-.453-3.264-1.36-4.284-.884-1.02-2.165-1.53-3.842-1.53-1.632 0-2.935.521-3.91 1.564-.975 1.02-1.462 2.437-1.462 4.25v9.486c0 .227-.068.408-.204.544-.136.136-.317.204-.544.204h-.578zm35.149 2.21c-.34 0-.703-.261-1.088-.782l-1.496-2.074c-1.36.657-2.947.986-4.76.986-5.825 0-8.817-3.128-8.976-9.384a91.315 91.315 0 01-.034-2.856c0-1.224.011-2.176.034-2.856.09-3.083.93-5.417 2.516-7.004 1.587-1.587 3.74-2.38 6.46-2.38 2.72 0 4.873.793 6.46 2.38 1.587 1.587 2.425 3.921 2.516 7.004.045 1.36.068 2.312.068 2.856s-.023 1.496-.068 2.856c-.113 3.241-.941 5.621-2.482 7.14l2.176 3.06a.847.847 0 01.102.374c0 .181-.068.34-.204.476a.653.653 0 01-.476.204h-.748zm-7.344-3.91c2.04 0 3.661-.612 4.862-1.836 1.224-1.247 1.881-3.139 1.972-5.678.045-1.36.068-2.255.068-2.686 0-.431-.023-1.326-.068-2.686-.091-2.539-.748-4.42-1.972-5.644-1.224-1.247-2.845-1.87-4.862-1.87s-3.638.623-4.862 1.87c-1.224 1.224-1.881 3.105-1.972 5.644-.023.68-.034 1.575-.034 2.686s.011 2.006.034 2.686c.09 2.539.737 4.431 1.938 5.678 1.224 1.224 2.856 1.836 4.896 1.836zm15.202 1.7c-.227 0-.408-.068-.544-.204-.136-.136-.204-.317-.204-.544v-22.304c0-.227.068-.408.204-.544.136-.136.317-.204.544-.204h.646c.226 0 .408.068.544.204.136.136.204.317.204.544v21.012h11.73c.249 0 .442.068.578.204.136.136.204.329.204.578v.51c0 .227-.08.408-.238.544-.136.136-.318.204-.544.204h-13.124z"/></svg>